<svg id="visual" viewBox="0 0 900 600" width="900" height="600" xmlns="http://www.w3.org/2000/svg" xmlns:xlink="http://www.w3.org/1999/xlink" version="1.1"><rect x="0" y="0" width="900" height="600" fill="#F0E4D3"></rect><path d="M711 600L708 585.7C705 571.3 699 542.7 699.8 514.2C700.7 485.7 708.3 457.3 716.7 428.8C725 400.3 734 371.7 733 343C732 314.3 721 285.7 718.2 257C715.3 228.3 720.7 199.7 725.2 171.2C729.7 142.7 733.3 114.3 720.2 85.8C707 57.3 677 28.7 662 14.3L647 0L900 0L900 14.3C900 28.7 900 57.3 900 85.8C900 114.3 900 142.7 900 171.2C900 199.7 900 228.3 900 257C900 285.7 900 314.3 900 343C900 371.7 900 400.3 900 428.8C900 457.3 900 485.7 900 514.2C900 542.7 900 571.3 900 585.7L900 600Z" fill="#fa7268"></path><path d="M705 600L706.8 585.7C708.7 571.3 712.3 542.7 713.3 514.2C714.3 485.7 712.7 457.3 723.3 428.8C734 400.3 757 371.7 757.7 343C758.3 314.3 736.7 285.7 731.8 257C727 228.3 739 199.7 746.7 171.2C754.3 142.7 757.7 114.3 758.5 85.8C759.3 57.3 757.7 28.7 756.8 14.3L756 0L900 0L900 14.3C900 28.7 900 57.3 900 85.8C900 114.3 900 142.7 900 171.2C900 199.7 900 228.3 900 257C900 285.7 900 314.3 900 343C900 371.7 900 400.3 900 428.8C900 457.3 900 485.7 900 514.2C900 542.7 900 571.3 900 585.7L900 600Z" fill="#eb5967"></path><path d="M814 600L810.5 585.7C807 571.3 800 542.7 795.8 514.2C791.7 485.7 790.3 457.3 784.5 428.8C778.7 400.3 768.3 371.7 761 343C753.7 314.3 749.3 285.7 756.3 257C763.3 228.3 781.7 199.7 787.2 171.2C792.7 142.7 785.3 114.3 776 85.8C766.7 57.3 755.3 28.7 749.7 14.3L744 0L900 0L900 14.3C900 28.7 900 57.3 900 85.8C900 114.3 900 142.7 900 171.2C900 199.7 900 228.3 900 257C900 285.7 900 314.3 900 343C900 371.7 900 400.3 900 428.8C900 457.3 900 485.7 900 514.2C900 542.7 900 571.3 900 585.7L900 600Z" fill="#da3f67"></path><path d="M855 600L856.2 585.7C857.3 571.3 859.7 542.7 849.5 514.2C839.3 485.7 816.7 457.3 809.5 428.8C802.3 400.3 810.7 371.7 813.5 343C816.3 314.3 813.7 285.7 815.3 257C817 228.3 823 199.7 828.2 171.2C833.3 142.7 837.7 114.3 843.2 85.8C848.7 57.3 855.3 28.7 858.7 14.3L862 0L900 0L900 14.3C900 28.7 900 57.3 900 85.8C900 114.3 900 142.7 900 171.2C900 199.7 900 228.3 900 257C900 285.7 900 314.3 900 343C900 371.7 900 400.3 900 428.8C900 457.3 900 485.7 900 514.2C900 542.7 900 571.3 900 585.7L900 600Z" fill="#c62368"></path></svg>