<svg id="visual" viewBox="0 0 900 600" width="900" height="600" xmlns="http://www.w3.org/2000/svg" xmlns:xlink="http://www.w3.org/1999/xlink" version="1.1"><rect x="0" y="0" width="900" height="600" fill="#F0E4D3"></rect><path d="M639 600L650.3 585.7C661.7 571.3 684.3 542.7 694.3 514.2C704.3 485.7 701.7 457.3 688.8 428.8C676 400.3 653 371.7 646.3 343C639.7 314.3 649.3 285.7 668.5 257C687.7 228.3 716.3 199.7 729.2 171.2C742 142.7 739 114.3 728.7 85.8C718.3 57.3 700.7 28.7 691.8 14.3L683 0L900 0L900 14.3C900 28.7 900 57.3 900 85.8C900 114.3 900 142.7 900 171.2C900 199.7 900 228.3 900 257C900 285.7 900 314.3 900 343C900 371.7 900 400.3 900 428.8C900 457.3 900 485.7 900 514.2C900 542.7 900 571.3 900 585.7L900 600Z" fill="#fa7268"></path><path d="M679 600L689.2 585.7C699.3 571.3 719.7 542.7 736 514.2C752.3 485.7 764.7 457.3 763 428.8C761.3 400.3 745.7 371.7 733.7 343C721.7 314.3 713.3 285.7 711.7 257C710 228.3 715 199.7 717 171.2C719 142.7 718 114.3 711.7 85.8C705.3 57.3 693.7 28.7 687.8 14.3L682 0L900 0L900 14.3C900 28.7 900 57.3 900 85.8C900 114.3 900 142.7 900 171.2C900 199.7 900 228.3 900 257C900 285.7 900 314.3 900 343C900 371.7 900 400.3 900 428.8C900 457.3 900 485.7 900 514.2C900 542.7 900 571.3 900 585.7L900 600Z" fill="#eb5967"></path><path d="M739 600L747.2 585.7C755.3 571.3 771.7 542.7 774.8 514.2C778 485.7 768 457.3 766.7 428.8C765.3 400.3 772.7 371.7 778.3 343C784 314.3 788 285.7 782.2 257C776.3 228.3 760.7 199.7 765.5 171.2C770.3 142.7 795.7 114.3 806.8 85.8C818 57.3 815 28.7 813.5 14.3L812 0L900 0L900 14.3C900 28.7 900 57.3 900 85.8C900 114.3 900 142.7 900 171.2C900 199.7 900 228.3 900 257C900 285.7 900 314.3 900 343C900 371.7 900 400.3 900 428.8C900 457.3 900 485.7 900 514.2C900 542.7 900 571.3 900 585.7L900 600Z" fill="#da3f67"></path><path d="M840 600L839.3 585.7C838.7 571.3 837.3 542.7 832.2 514.2C827 485.7 818 457.3 813.5 428.8C809 400.3 809 371.7 812.5 343C816 314.3 823 285.7 823 257C823 228.3 816 199.7 819.7 171.2C823.3 142.7 837.7 114.3 846 85.8C854.3 57.3 856.7 28.7 857.8 14.3L859 0L900 0L900 14.3C900 28.7 900 57.3 900 85.8C900 114.3 900 142.7 900 171.2C900 199.7 900 228.3 900 257C900 285.7 900 314.3 900 343C900 371.7 900 400.3 900 428.8C900 457.3 900 485.7 900 514.2C900 542.7 900 571.3 900 585.7L900 600Z" fill="#c62368"></path></svg>